# xmcd
#
# Track frame offsets:
# 150
# 18703
# 39361
# 61715
# 82984
# 102002
# 124475
# 142277
# 161601
# 179458
# 198448
# 213043
# 235283
# 239569
# 259626
# 277389
# 301292
# 303411
#
# Disc length: 4091 seconds
#
#
# Revision: 0
# Processed by: cddbd v1.5.2PL0 Copyright (c) Steve Scherf et al.
# Submitted via: Nero 7, 2, 3, 3 
#
DISCID=040ff912
DTITLE=Brad Paisley - 5th Gear
DYEAR=2007
DGENRE=Country
TTITLE0=5th Gear
TTITLE1=5th Gear
TTITLE2=5th Gear
TTITLE3=5th Gear
TTITLE4=5th Gear
TTITLE5=5th Gear
TTITLE6=5th Gear
TTITLE7=5th Gear
TTITLE8=5th Gear
TTITLE9=5th Gear
TTITLE10=5th Gear
TTITLE11=5th Gear
TTITLE12=5th Gear
TTITLE13=5th Gear
TTITLE14=5th Gear
TTITLE15=5th Gear
TTITLE16=5th Gear
TTITLE17=5th Gear
EXTD=
EXTT0=
EXTT1=
EXTT2=
EXTT3=
EXTT4=
EXTT5=
EXTT6=
EXTT7=
EXTT8=
EXTT9=
EXTT10=
EXTT11=
EXTT12=
EXTT13=
EXTT14=
EXTT15=
EXTT16=
EXTT17=
PLAYORDER=
